<?xml version="1.0" encoding="UTF-8" standalone="no"?>
<!DOCTYPE svg PUBLIC "-//W3C//DTD SVG 1.1//EN"
 "http://www.w3.org/Graphics/SVG/1.1/DTD/svg11.dtd">
<!-- Generated by graphviz version 2.38.0 (20140413.2041)
 -->
<!-- Title: controllers_diagram Pages: 1 -->
<svg width="686pt" height="678pt"
 viewBox="0.00 0.00 685.50 678.00" xmlns="http://www.w3.org/2000/svg" xmlns:xlink="http://www.w3.org/1999/xlink">
<g id="graph0" class="graph" transform="scale(1 1) rotate(0) translate(260 402)">
<title>controllers_diagram</title>
<polygon fill="none" stroke="none" points="-260,276 -260,-402 425.5,-402 425.5,276 -260,276"/>
<!-- _diagram_info -->
<g id="node1" class="node"><title>_diagram_info</title>
<text text-anchor="start" x="88" y="128.4" font-family="Times,serif" font-size="13.00">Controllers diagram</text>
<text text-anchor="start" x="88" y="142.4" font-family="Times,serif" font-size="13.00">Date: Dec 12 2016 &#45; 11:19</text>
<text text-anchor="start" x="88" y="156.4" font-family="Times,serif" font-size="13.00">Migration version: 20161211171448</text>
<text text-anchor="start" x="88" y="170.4" font-family="Times,serif" font-size="13.00">Generated by RailRoady 1.5.2</text>
<text text-anchor="start" x="88" y="184.4" font-family="Times,serif" font-size="13.00">http://railroady.prestonlee.com</text>
</g>
<!-- LandingController -->
<g id="node2" class="node"><title>LandingController</title>
<path fill="none" stroke="black" d="M316.5,-304.5C316.5,-304.5 409.5,-304.5 409.5,-304.5 415.5,-304.5 421.5,-310.5 421.5,-316.5 421.5,-316.5 421.5,-385.5 421.5,-385.5 421.5,-391.5 415.5,-397.5 409.5,-397.5 409.5,-397.5 316.5,-397.5 316.5,-397.5 310.5,-397.5 304.5,-391.5 304.5,-385.5 304.5,-385.5 304.5,-316.5 304.5,-316.5 304.5,-310.5 310.5,-304.5 316.5,-304.5"/>
<text text-anchor="middle" x="363" y="-382.3" font-family="Times,serif" font-size="14.00">LandingController</text>
<polyline fill="none" stroke="black" points="304.5,-374.5 421.5,-374.5 "/>
<text text-anchor="start" x="312.5" y="-359.3" font-family="Times,serif" font-size="14.00">index</text>
<polyline fill="none" stroke="black" points="304.5,-351.5 421.5,-351.5 "/>
<polyline fill="none" stroke="black" points="304.5,-327.5 421.5,-327.5 "/>
<text text-anchor="start" x="312.5" y="-312.3" font-family="Times,serif" font-size="14.00">_layout</text>
</g>
<!-- Users::RegistrationsController -->
<g id="node3" class="node"><title>Users::RegistrationsController</title>
<path fill="none" stroke="black" d="M220,79.5C220,79.5 378,79.5 378,79.5 384,79.5 390,73.5 390,67.5 390,67.5 390,-1.5 390,-1.5 390,-7.5 384,-13.5 378,-13.5 378,-13.5 220,-13.5 220,-13.5 214,-13.5 208,-7.5 208,-1.5 208,-1.5 208,67.5 208,67.5 208,73.5 214,79.5 220,79.5"/>
<text text-anchor="middle" x="299" y="1.7" font-family="Times,serif" font-size="14.00">Users::RegistrationsController</text>
<polyline fill="none" stroke="black" points="208,9.5 390,9.5 "/>
<text text-anchor="start" x="216" y="24.7" font-family="Times,serif" font-size="14.00">configure_sign_up_params</text>
<polyline fill="none" stroke="black" points="208,32.5 390,32.5 "/>
<polyline fill="none" stroke="black" points="208,56.5 390,56.5 "/>
<text text-anchor="start" x="216" y="71.7" font-family="Times,serif" font-size="14.00">_layout</text>
</g>
<!-- Users::ConfirmationsController -->
<g id="node4" class="node"><title>Users::ConfirmationsController</title>
<path fill="none" stroke="black" d="M220.5,-49C220.5,-49 385.5,-49 385.5,-49 391.5,-49 397.5,-55 397.5,-61 397.5,-61 397.5,-131 397.5,-131 397.5,-137 391.5,-143 385.5,-143 385.5,-143 220.5,-143 220.5,-143 214.5,-143 208.5,-137 208.5,-131 208.5,-131 208.5,-61 208.5,-61 208.5,-55 214.5,-49 220.5,-49"/>
<text text-anchor="middle" x="303" y="-127.8" font-family="Times,serif" font-size="14.00">Users::ConfirmationsController</text>
<polyline fill="none" stroke="black" points="208.5,-120 397.5,-120 "/>
<polyline fill="none" stroke="black" points="208.5,-96 397.5,-96 "/>
<polyline fill="none" stroke="black" points="208.5,-72 397.5,-72 "/>
<text text-anchor="start" x="216.5" y="-56.8" font-family="Times,serif" font-size="14.00">_layout</text>
</g>
<!-- Users::OmniauthCallbacksController -->
<g id="node5" class="node"><title>Users::OmniauthCallbacksController</title>
<path fill="none" stroke="black" d="M188,-177C188,-177 382,-177 382,-177 388,-177 394,-183 394,-189 394,-189 394,-259 394,-259 394,-265 388,-271 382,-271 382,-271 188,-271 188,-271 182,-271 176,-265 176,-259 176,-259 176,-189 176,-189 176,-183 182,-177 188,-177"/>
<text text-anchor="middle" x="285" y="-255.8" font-family="Times,serif" font-size="14.00">Users::OmniauthCallbacksController</text>
<polyline fill="none" stroke="black" points="176,-248 394,-248 "/>
<polyline fill="none" stroke="black" points="176,-224 394,-224 "/>
<polyline fill="none" stroke="black" points="176,-200 394,-200 "/>
<text text-anchor="start" x="184" y="-184.8" font-family="Times,serif" font-size="14.00">_layout</text>
</g>
<!-- Users::UnlocksController -->
<g id="node6" class="node"><title>Users::UnlocksController</title>
<path fill="none" stroke="black" d="M-243.5,-257C-243.5,-257 -112.5,-257 -112.5,-257 -106.5,-257 -100.5,-263 -100.5,-269 -100.5,-269 -100.5,-339 -100.5,-339 -100.5,-345 -106.5,-351 -112.5,-351 -112.5,-351 -243.5,-351 -243.5,-351 -249.5,-351 -255.5,-345 -255.5,-339 -255.5,-339 -255.5,-269 -255.5,-269 -255.5,-263 -249.5,-257 -243.5,-257"/>
<text text-anchor="middle" x="-178" y="-335.8" font-family="Times,serif" font-size="14.00">Users::UnlocksController</text>
<polyline fill="none" stroke="black" points="-255.5,-328 -100.5,-328 "/>
<polyline fill="none" stroke="black" points="-255.5,-304 -100.5,-304 "/>
<polyline fill="none" stroke="black" points="-255.5,-280 -100.5,-280 "/>
<text text-anchor="start" x="-247.5" y="-264.8" font-family="Times,serif" font-size="14.00">_layout</text>
</g>
<!-- Users::SessionsController -->
<g id="node7" class="node"><title>Users::SessionsController</title>
<path fill="none" stroke="black" d="M-243.5,-129C-243.5,-129 -110.5,-129 -110.5,-129 -104.5,-129 -98.5,-135 -98.5,-141 -98.5,-141 -98.5,-211 -98.5,-211 -98.5,-217 -104.5,-223 -110.5,-223 -110.5,-223 -243.5,-223 -243.5,-223 -249.5,-223 -255.5,-217 -255.5,-211 -255.5,-211 -255.5,-141 -255.5,-141 -255.5,-135 -249.5,-129 -243.5,-129"/>
<text text-anchor="middle" x="-177" y="-207.8" font-family="Times,serif" font-size="14.00">Users::SessionsController</text>
<polyline fill="none" stroke="black" points="-255.5,-200 -98.5,-200 "/>
<polyline fill="none" stroke="black" points="-255.5,-176 -98.5,-176 "/>
<polyline fill="none" stroke="black" points="-255.5,-152 -98.5,-152 "/>
<text text-anchor="start" x="-247.5" y="-136.8" font-family="Times,serif" font-size="14.00">_layout</text>
</g>
<!-- Users::PasswordsController -->
<g id="node8" class="node"><title>Users::PasswordsController</title>
<path fill="none" stroke="black" d="M-228.5,239C-228.5,239 -85.5,239 -85.5,239 -79.5,239 -73.5,233 -73.5,227 -73.5,227 -73.5,157 -73.5,157 -73.5,151 -79.5,145 -85.5,145 -85.5,145 -228.5,145 -228.5,145 -234.5,145 -240.5,151 -240.5,157 -240.5,157 -240.5,227 -240.5,227 -240.5,233 -234.5,239 -228.5,239"/>
<text text-anchor="middle" x="-157" y="160.2" font-family="Times,serif" font-size="14.00">Users::PasswordsController</text>
<polyline fill="none" stroke="black" points="-240.5,168 -73.5,168 "/>
<polyline fill="none" stroke="black" points="-240.5,192 -73.5,192 "/>
<polyline fill="none" stroke="black" points="-240.5,216 -73.5,216 "/>
<text text-anchor="start" x="-232.5" y="231.2" font-family="Times,serif" font-size="14.00">_layout</text>
</g>
<!-- PostsController -->
<g id="node9" class="node"><title>PostsController</title>
<path fill="none" stroke="black" d="M92.5,79C92.5,79 169.5,79 169.5,79 175.5,79 181.5,73 181.5,67 181.5,67 181.5,-137 181.5,-137 181.5,-143 175.5,-149 169.5,-149 169.5,-149 92.5,-149 92.5,-149 86.5,-149 80.5,-143 80.5,-137 80.5,-137 80.5,67 80.5,67 80.5,73 86.5,79 92.5,79"/>
<text text-anchor="middle" x="131" y="-133.8" font-family="Times,serif" font-size="14.00">PostsController</text>
<polyline fill="none" stroke="black" points="80.5,-126 181.5,-126 "/>
<text text-anchor="start" x="88.5" y="-110.8" font-family="Times,serif" font-size="14.00">create</text>
<text text-anchor="start" x="88.5" y="-95.8" font-family="Times,serif" font-size="14.00">destroy</text>
<text text-anchor="start" x="88.5" y="-80.8" font-family="Times,serif" font-size="14.00">edit</text>
<text text-anchor="start" x="88.5" y="-65.8" font-family="Times,serif" font-size="14.00">index</text>
<text text-anchor="start" x="88.5" y="-50.8" font-family="Times,serif" font-size="14.00">indexprivate</text>
<text text-anchor="start" x="88.5" y="-35.8" font-family="Times,serif" font-size="14.00">new</text>
<text text-anchor="start" x="88.5" y="-20.8" font-family="Times,serif" font-size="14.00">show</text>
<text text-anchor="start" x="88.5" y="-5.8" font-family="Times,serif" font-size="14.00">update</text>
<polyline fill="none" stroke="black" points="80.5,2 181.5,2 "/>
<polyline fill="none" stroke="black" points="80.5,26 181.5,26 "/>
<text text-anchor="start" x="88.5" y="41.2" font-family="Times,serif" font-size="14.00">_layout</text>
<text text-anchor="start" x="88.5" y="56.2" font-family="Times,serif" font-size="14.00">post_params</text>
<text text-anchor="start" x="88.5" y="71.2" font-family="Times,serif" font-size="14.00">set_post</text>
</g>
<!-- GroupsController -->
<g id="node10" class="node"><title>GroupsController</title>
<path fill="none" stroke="black" d="M-52,-129C-52,-129 36,-129 36,-129 42,-129 48,-135 48,-141 48,-141 48,-345 48,-345 48,-351 42,-357 36,-357 36,-357 -52,-357 -52,-357 -58,-357 -64,-351 -64,-345 -64,-345 -64,-141 -64,-141 -64,-135 -58,-129 -52,-129"/>
<text text-anchor="middle" x="-8" y="-341.8" font-family="Times,serif" font-size="14.00">GroupsController</text>
<polyline fill="none" stroke="black" points="-64,-334 48,-334 "/>
<text text-anchor="start" x="-56" y="-318.8" font-family="Times,serif" font-size="14.00">create</text>
<text text-anchor="start" x="-56" y="-303.8" font-family="Times,serif" font-size="14.00">decision</text>
<text text-anchor="start" x="-56" y="-288.8" font-family="Times,serif" font-size="14.00">destroy</text>
<text text-anchor="start" x="-56" y="-273.8" font-family="Times,serif" font-size="14.00">edit</text>
<text text-anchor="start" x="-56" y="-258.8" font-family="Times,serif" font-size="14.00">index</text>
<text text-anchor="start" x="-56" y="-243.8" font-family="Times,serif" font-size="14.00">new</text>
<text text-anchor="start" x="-56" y="-228.8" font-family="Times,serif" font-size="14.00">show</text>
<text text-anchor="start" x="-56" y="-213.8" font-family="Times,serif" font-size="14.00">update</text>
<polyline fill="none" stroke="black" points="-64,-206 48,-206 "/>
<polyline fill="none" stroke="black" points="-64,-182 48,-182 "/>
<text text-anchor="start" x="-56" y="-166.8" font-family="Times,serif" font-size="14.00">_layout</text>
<text text-anchor="start" x="-56" y="-151.8" font-family="Times,serif" font-size="14.00">group_params</text>
<text text-anchor="start" x="-56" y="-136.8" font-family="Times,serif" font-size="14.00">set_group</text>
</g>
<!-- CommentsController -->
<g id="node11" class="node"><title>CommentsController</title>
<path fill="none" stroke="black" d="M-68,111.5C-68,111.5 40,111.5 40,111.5 46,111.5 52,105.5 52,99.5 52,99.5 52,-89.5 52,-89.5 52,-95.5 46,-101.5 40,-101.5 40,-101.5 -68,-101.5 -68,-101.5 -74,-101.5 -80,-95.5 -80,-89.5 -80,-89.5 -80,99.5 -80,99.5 -80,105.5 -74,111.5 -68,111.5"/>
<text text-anchor="middle" x="-14" y="-86.3" font-family="Times,serif" font-size="14.00">CommentsController</text>
<polyline fill="none" stroke="black" points="-80,-78.5 52,-78.5 "/>
<text text-anchor="start" x="-72" y="-63.3" font-family="Times,serif" font-size="14.00">create</text>
<text text-anchor="start" x="-72" y="-48.3" font-family="Times,serif" font-size="14.00">destroy</text>
<text text-anchor="start" x="-72" y="-33.3" font-family="Times,serif" font-size="14.00">edit</text>
<text text-anchor="start" x="-72" y="-18.3" font-family="Times,serif" font-size="14.00">index</text>
<text text-anchor="start" x="-72" y="-3.3" font-family="Times,serif" font-size="14.00">new</text>
<text text-anchor="start" x="-72" y="11.7" font-family="Times,serif" font-size="14.00">show</text>
<text text-anchor="start" x="-72" y="26.7" font-family="Times,serif" font-size="14.00">update</text>
<polyline fill="none" stroke="black" points="-80,34.5 52,34.5 "/>
<polyline fill="none" stroke="black" points="-80,58.5 52,58.5 "/>
<text text-anchor="start" x="-72" y="73.7" font-family="Times,serif" font-size="14.00">_layout</text>
<text text-anchor="start" x="-72" y="88.7" font-family="Times,serif" font-size="14.00">comment_params</text>
<text text-anchor="start" x="-72" y="103.7" font-family="Times,serif" font-size="14.00">set_comment</text>
</g>
<!-- UsersController -->
<g id="node12" class="node"><title>UsersController</title>
<path fill="none" stroke="black" d="M188.5,-304.5C188.5,-304.5 267.5,-304.5 267.5,-304.5 273.5,-304.5 279.5,-310.5 279.5,-316.5 279.5,-316.5 279.5,-385.5 279.5,-385.5 279.5,-391.5 273.5,-397.5 267.5,-397.5 267.5,-397.5 188.5,-397.5 188.5,-397.5 182.5,-397.5 176.5,-391.5 176.5,-385.5 176.5,-385.5 176.5,-316.5 176.5,-316.5 176.5,-310.5 182.5,-304.5 188.5,-304.5"/>
<text text-anchor="middle" x="228" y="-382.3" font-family="Times,serif" font-size="14.00">UsersController</text>
<polyline fill="none" stroke="black" points="176.5,-374.5 279.5,-374.5 "/>
<text text-anchor="start" x="184.5" y="-359.3" font-family="Times,serif" font-size="14.00">profile</text>
<polyline fill="none" stroke="black" points="176.5,-351.5 279.5,-351.5 "/>
<polyline fill="none" stroke="black" points="176.5,-327.5 279.5,-327.5 "/>
<text text-anchor="start" x="184.5" y="-312.3" font-family="Times,serif" font-size="14.00">_layout</text>
</g>
<!-- ApplicationController -->
<g id="node13" class="node"><title>ApplicationController</title>
<path fill="none" stroke="black" d="M-244,15.5C-244,15.5 -132,15.5 -132,15.5 -126,15.5 -120,9.5 -120,3.5 -120,3.5 -120,-81.5 -120,-81.5 -120,-87.5 -126,-93.5 -132,-93.5 -132,-93.5 -244,-93.5 -244,-93.5 -250,-93.5 -256,-87.5 -256,-81.5 -256,-81.5 -256,3.5 -256,3.5 -256,9.5 -250,15.5 -244,15.5"/>
<text text-anchor="middle" x="-188" y="-78.3" font-family="Times,serif" font-size="14.00">ApplicationController</text>
<polyline fill="none" stroke="black" points="-256,-70.5 -120,-70.5 "/>
<polyline fill="none" stroke="black" points="-256,-46.5 -120,-46.5 "/>
<polyline fill="none" stroke="black" points="-256,-22.5 -120,-22.5 "/>
<text text-anchor="start" x="-248" y="-7.3" font-family="Times,serif" font-size="14.00">_layout</text>
<text text-anchor="start" x="-248" y="7.7" font-family="Times,serif" font-size="14.00">check_admin!</text>
</g>
<!-- JavasController -->
<g id="node14" class="node"><title>JavasController</title>
<path fill="none" stroke="black" d="M-35.5,271.5C-35.5,271.5 41.5,271.5 41.5,271.5 47.5,271.5 53.5,265.5 53.5,259.5 53.5,259.5 53.5,160.5 53.5,160.5 53.5,154.5 47.5,148.5 41.5,148.5 41.5,148.5 -35.5,148.5 -35.5,148.5 -41.5,148.5 -47.5,154.5 -47.5,160.5 -47.5,160.5 -47.5,259.5 -47.5,259.5 -47.5,265.5 -41.5,271.5 -35.5,271.5"/>
<text text-anchor="middle" x="3" y="163.7" font-family="Times,serif" font-size="14.00">JavasController</text>
<polyline fill="none" stroke="black" points="-47.5,171.5 53.5,171.5 "/>
<text text-anchor="start" x="-39.5" y="186.7" font-family="Times,serif" font-size="14.00">pag1</text>
<text text-anchor="start" x="-39.5" y="201.7" font-family="Times,serif" font-size="14.00">pag2</text>
<text text-anchor="start" x="-39.5" y="216.7" font-family="Times,serif" font-size="14.00">pag3</text>
<polyline fill="none" stroke="black" points="-47.5,224.5 53.5,224.5 "/>
<polyline fill="none" stroke="black" points="-47.5,248.5 53.5,248.5 "/>
<text text-anchor="start" x="-39.5" y="263.7" font-family="Times,serif" font-size="14.00">_layout</text>
</g>
</g>
</svg>
