<?xml version="1.0" encoding="UTF-8" standalone="no"?>
<!DOCTYPE svg PUBLIC "-//W3C//DTD SVG 1.1//EN"
 "http://www.w3.org/Graphics/SVG/1.1/DTD/svg11.dtd">
<!-- Generated by graphviz version 2.38.0 (20140413.2041)
 -->
<!-- Title: controllers_diagram Pages: 1 -->
<svg width="704pt" height="740pt"
 viewBox="0.00 0.00 703.50 740.00" xmlns="http://www.w3.org/2000/svg" xmlns:xlink="http://www.w3.org/1999/xlink">
<g id="graph0" class="graph" transform="scale(1 1) rotate(0) translate(275.5 416)">
<title>controllers_diagram</title>
<polygon fill="none" stroke="none" points="-275.5,324 -275.5,-416 428,-416 428,324 -275.5,324"/>
<!-- _diagram_info -->
<g id="node1" class="node"><title>_diagram_info</title>
<text text-anchor="start" x="88" y="128.4" font-family="Times,serif" font-size="13.00">Controllers diagram</text>
<text text-anchor="start" x="88" y="142.4" font-family="Times,serif" font-size="13.00">Date: Dec 07 2016 &#45; 21:29</text>
<text text-anchor="start" x="88" y="156.4" font-family="Times,serif" font-size="13.00">Migration version: 20161130020931</text>
<text text-anchor="start" x="88" y="170.4" font-family="Times,serif" font-size="13.00">Generated by RailRoady 1.5.2</text>
<text text-anchor="start" x="88" y="184.4" font-family="Times,serif" font-size="13.00">http://railroady.prestonlee.com</text>
</g>
<!-- LandingController -->
<g id="node2" class="node"><title>LandingController</title>
<path fill="none" stroke="black" d="M12.5,319.5C12.5,319.5 105.5,319.5 105.5,319.5 111.5,319.5 117.5,313.5 117.5,307.5 117.5,307.5 117.5,238.5 117.5,238.5 117.5,232.5 111.5,226.5 105.5,226.5 105.5,226.5 12.5,226.5 12.5,226.5 6.5,226.5 0.5,232.5 0.5,238.5 0.5,238.5 0.5,307.5 0.5,307.5 0.5,313.5 6.5,319.5 12.5,319.5"/>
<text text-anchor="middle" x="59" y="241.7" font-family="Times,serif" font-size="14.00">LandingController</text>
<polyline fill="none" stroke="black" points="0.5,249.5 117.5,249.5 "/>
<text text-anchor="start" x="8.5" y="264.7" font-family="Times,serif" font-size="14.00">index</text>
<polyline fill="none" stroke="black" points="0.5,272.5 117.5,272.5 "/>
<polyline fill="none" stroke="black" points="0.5,296.5 117.5,296.5 "/>
<text text-anchor="start" x="8.5" y="311.7" font-family="Times,serif" font-size="14.00">_layout</text>
</g>
<!-- Users::RegistrationsController -->
<g id="node3" class="node"><title>Users::RegistrationsController</title>
<path fill="none" stroke="black" d="M220,79C220,79 378,79 378,79 384,79 390,73 390,67 390,67 390,-3 390,-3 390,-9 384,-15 378,-15 378,-15 220,-15 220,-15 214,-15 208,-9 208,-3 208,-3 208,67 208,67 208,73 214,79 220,79"/>
<text text-anchor="middle" x="299" y="0.2" font-family="Times,serif" font-size="14.00">Users::RegistrationsController</text>
<polyline fill="none" stroke="black" points="208,8 390,8 "/>
<polyline fill="none" stroke="black" points="208,32 390,32 "/>
<polyline fill="none" stroke="black" points="208,56 390,56 "/>
<text text-anchor="start" x="216" y="71.2" font-family="Times,serif" font-size="14.00">_layout</text>
</g>
<!-- Users::ConfirmationsController -->
<g id="node4" class="node"><title>Users::ConfirmationsController</title>
<path fill="none" stroke="black" d="M-227.5,239C-227.5,239 -62.5,239 -62.5,239 -56.5,239 -50.5,233 -50.5,227 -50.5,227 -50.5,157 -50.5,157 -50.5,151 -56.5,145 -62.5,145 -62.5,145 -227.5,145 -227.5,145 -233.5,145 -239.5,151 -239.5,157 -239.5,157 -239.5,227 -239.5,227 -239.5,233 -233.5,239 -227.5,239"/>
<text text-anchor="middle" x="-145" y="160.2" font-family="Times,serif" font-size="14.00">Users::ConfirmationsController</text>
<polyline fill="none" stroke="black" points="-239.5,168 -50.5,168 "/>
<polyline fill="none" stroke="black" points="-239.5,192 -50.5,192 "/>
<polyline fill="none" stroke="black" points="-239.5,216 -50.5,216 "/>
<text text-anchor="start" x="-231.5" y="231.2" font-family="Times,serif" font-size="14.00">_layout</text>
</g>
<!-- Users::OmniauthCallbacksController -->
<g id="node5" class="node"><title>Users::OmniauthCallbacksController</title>
<path fill="none" stroke="black" d="M172,-161C172,-161 366,-161 366,-161 372,-161 378,-167 378,-173 378,-173 378,-243 378,-243 378,-249 372,-255 366,-255 366,-255 172,-255 172,-255 166,-255 160,-249 160,-243 160,-243 160,-173 160,-173 160,-167 166,-161 172,-161"/>
<text text-anchor="middle" x="269" y="-239.8" font-family="Times,serif" font-size="14.00">Users::OmniauthCallbacksController</text>
<polyline fill="none" stroke="black" points="160,-232 378,-232 "/>
<polyline fill="none" stroke="black" points="160,-208 378,-208 "/>
<polyline fill="none" stroke="black" points="160,-184 378,-184 "/>
<text text-anchor="start" x="168" y="-168.8" font-family="Times,serif" font-size="14.00">_layout</text>
</g>
<!-- Users::UnlocksController -->
<g id="node6" class="node"><title>Users::UnlocksController</title>
<path fill="none" stroke="black" d="M-243.5,-129C-243.5,-129 -112.5,-129 -112.5,-129 -106.5,-129 -100.5,-135 -100.5,-141 -100.5,-141 -100.5,-211 -100.5,-211 -100.5,-217 -106.5,-223 -112.5,-223 -112.5,-223 -243.5,-223 -243.5,-223 -249.5,-223 -255.5,-217 -255.5,-211 -255.5,-211 -255.5,-141 -255.5,-141 -255.5,-135 -249.5,-129 -243.5,-129"/>
<text text-anchor="middle" x="-178" y="-207.8" font-family="Times,serif" font-size="14.00">Users::UnlocksController</text>
<polyline fill="none" stroke="black" points="-255.5,-200 -100.5,-200 "/>
<polyline fill="none" stroke="black" points="-255.5,-176 -100.5,-176 "/>
<polyline fill="none" stroke="black" points="-255.5,-152 -100.5,-152 "/>
<text text-anchor="start" x="-247.5" y="-136.8" font-family="Times,serif" font-size="14.00">_layout</text>
</g>
<!-- Users::SessionsController -->
<g id="node7" class="node"><title>Users::SessionsController</title>
<path fill="none" stroke="black" d="M-259.5,-1C-259.5,-1 -126.5,-1 -126.5,-1 -120.5,-1 -114.5,-7 -114.5,-13 -114.5,-13 -114.5,-83 -114.5,-83 -114.5,-89 -120.5,-95 -126.5,-95 -126.5,-95 -259.5,-95 -259.5,-95 -265.5,-95 -271.5,-89 -271.5,-83 -271.5,-83 -271.5,-13 -271.5,-13 -271.5,-7 -265.5,-1 -259.5,-1"/>
<text text-anchor="middle" x="-193" y="-79.8" font-family="Times,serif" font-size="14.00">Users::SessionsController</text>
<polyline fill="none" stroke="black" points="-271.5,-72 -114.5,-72 "/>
<polyline fill="none" stroke="black" points="-271.5,-48 -114.5,-48 "/>
<polyline fill="none" stroke="black" points="-271.5,-24 -114.5,-24 "/>
<text text-anchor="start" x="-263.5" y="-8.8" font-family="Times,serif" font-size="14.00">_layout</text>
</g>
<!-- Users::PasswordsController -->
<g id="node8" class="node"><title>Users::PasswordsController</title>
<path fill="none" stroke="black" d="M-244.5,-257C-244.5,-257 -101.5,-257 -101.5,-257 -95.5,-257 -89.5,-263 -89.5,-269 -89.5,-269 -89.5,-339 -89.5,-339 -89.5,-345 -95.5,-351 -101.5,-351 -101.5,-351 -244.5,-351 -244.5,-351 -250.5,-351 -256.5,-345 -256.5,-339 -256.5,-339 -256.5,-269 -256.5,-269 -256.5,-263 -250.5,-257 -244.5,-257"/>
<text text-anchor="middle" x="-173" y="-335.8" font-family="Times,serif" font-size="14.00">Users::PasswordsController</text>
<polyline fill="none" stroke="black" points="-256.5,-328 -89.5,-328 "/>
<polyline fill="none" stroke="black" points="-256.5,-304 -89.5,-304 "/>
<polyline fill="none" stroke="black" points="-256.5,-280 -89.5,-280 "/>
<text text-anchor="start" x="-248.5" y="-264.8" font-family="Times,serif" font-size="14.00">_layout</text>
</g>
<!-- PostsController -->
<g id="node9" class="node"><title>PostsController</title>
<path fill="none" stroke="black" d="M92.5,79.5C92.5,79.5 169.5,79.5 169.5,79.5 175.5,79.5 181.5,73.5 181.5,67.5 181.5,67.5 181.5,-121.5 181.5,-121.5 181.5,-127.5 175.5,-133.5 169.5,-133.5 169.5,-133.5 92.5,-133.5 92.5,-133.5 86.5,-133.5 80.5,-127.5 80.5,-121.5 80.5,-121.5 80.5,67.5 80.5,67.5 80.5,73.5 86.5,79.5 92.5,79.5"/>
<text text-anchor="middle" x="131" y="-118.3" font-family="Times,serif" font-size="14.00">PostsController</text>
<polyline fill="none" stroke="black" points="80.5,-110.5 181.5,-110.5 "/>
<text text-anchor="start" x="88.5" y="-95.3" font-family="Times,serif" font-size="14.00">create</text>
<text text-anchor="start" x="88.5" y="-80.3" font-family="Times,serif" font-size="14.00">destroy</text>
<text text-anchor="start" x="88.5" y="-65.3" font-family="Times,serif" font-size="14.00">edit</text>
<text text-anchor="start" x="88.5" y="-50.3" font-family="Times,serif" font-size="14.00">index</text>
<text text-anchor="start" x="88.5" y="-35.3" font-family="Times,serif" font-size="14.00">new</text>
<text text-anchor="start" x="88.5" y="-20.3" font-family="Times,serif" font-size="14.00">show</text>
<text text-anchor="start" x="88.5" y="-5.3" font-family="Times,serif" font-size="14.00">update</text>
<polyline fill="none" stroke="black" points="80.5,2.5 181.5,2.5 "/>
<polyline fill="none" stroke="black" points="80.5,26.5 181.5,26.5 "/>
<text text-anchor="start" x="88.5" y="41.7" font-family="Times,serif" font-size="14.00">_layout</text>
<text text-anchor="start" x="88.5" y="56.7" font-family="Times,serif" font-size="14.00">post_params</text>
<text text-anchor="start" x="88.5" y="71.7" font-family="Times,serif" font-size="14.00">set_post</text>
</g>
<!-- GroupsController -->
<g id="node10" class="node"><title>GroupsController</title>
<path fill="none" stroke="black" d="M-52,-128.5C-52,-128.5 36,-128.5 36,-128.5 42,-128.5 48,-134.5 48,-140.5 48,-140.5 48,-329.5 48,-329.5 48,-335.5 42,-341.5 36,-341.5 36,-341.5 -52,-341.5 -52,-341.5 -58,-341.5 -64,-335.5 -64,-329.5 -64,-329.5 -64,-140.5 -64,-140.5 -64,-134.5 -58,-128.5 -52,-128.5"/>
<text text-anchor="middle" x="-8" y="-326.3" font-family="Times,serif" font-size="14.00">GroupsController</text>
<polyline fill="none" stroke="black" points="-64,-318.5 48,-318.5 "/>
<text text-anchor="start" x="-56" y="-303.3" font-family="Times,serif" font-size="14.00">create</text>
<text text-anchor="start" x="-56" y="-288.3" font-family="Times,serif" font-size="14.00">destroy</text>
<text text-anchor="start" x="-56" y="-273.3" font-family="Times,serif" font-size="14.00">edit</text>
<text text-anchor="start" x="-56" y="-258.3" font-family="Times,serif" font-size="14.00">index</text>
<text text-anchor="start" x="-56" y="-243.3" font-family="Times,serif" font-size="14.00">new</text>
<text text-anchor="start" x="-56" y="-228.3" font-family="Times,serif" font-size="14.00">show</text>
<text text-anchor="start" x="-56" y="-213.3" font-family="Times,serif" font-size="14.00">update</text>
<polyline fill="none" stroke="black" points="-64,-205.5 48,-205.5 "/>
<polyline fill="none" stroke="black" points="-64,-181.5 48,-181.5 "/>
<text text-anchor="start" x="-56" y="-166.3" font-family="Times,serif" font-size="14.00">_layout</text>
<text text-anchor="start" x="-56" y="-151.3" font-family="Times,serif" font-size="14.00">group_params</text>
<text text-anchor="start" x="-56" y="-136.3" font-family="Times,serif" font-size="14.00">set_group</text>
</g>
<!-- CommentsController -->
<g id="node11" class="node"><title>CommentsController</title>
<path fill="none" stroke="black" d="M-68,111.5C-68,111.5 40,111.5 40,111.5 46,111.5 52,105.5 52,99.5 52,99.5 52,-89.5 52,-89.5 52,-95.5 46,-101.5 40,-101.5 40,-101.5 -68,-101.5 -68,-101.5 -74,-101.5 -80,-95.5 -80,-89.5 -80,-89.5 -80,99.5 -80,99.5 -80,105.5 -74,111.5 -68,111.5"/>
<text text-anchor="middle" x="-14" y="-86.3" font-family="Times,serif" font-size="14.00">CommentsController</text>
<polyline fill="none" stroke="black" points="-80,-78.5 52,-78.5 "/>
<text text-anchor="start" x="-72" y="-63.3" font-family="Times,serif" font-size="14.00">create</text>
<text text-anchor="start" x="-72" y="-48.3" font-family="Times,serif" font-size="14.00">destroy</text>
<text text-anchor="start" x="-72" y="-33.3" font-family="Times,serif" font-size="14.00">edit</text>
<text text-anchor="start" x="-72" y="-18.3" font-family="Times,serif" font-size="14.00">index</text>
<text text-anchor="start" x="-72" y="-3.3" font-family="Times,serif" font-size="14.00">new</text>
<text text-anchor="start" x="-72" y="11.7" font-family="Times,serif" font-size="14.00">show</text>
<text text-anchor="start" x="-72" y="26.7" font-family="Times,serif" font-size="14.00">update</text>
<polyline fill="none" stroke="black" points="-80,34.5 52,34.5 "/>
<polyline fill="none" stroke="black" points="-80,58.5 52,58.5 "/>
<text text-anchor="start" x="-72" y="73.7" font-family="Times,serif" font-size="14.00">_layout</text>
<text text-anchor="start" x="-72" y="88.7" font-family="Times,serif" font-size="14.00">comment_params</text>
<text text-anchor="start" x="-72" y="103.7" font-family="Times,serif" font-size="14.00">set_comment</text>
</g>
<!-- UsersController -->
<g id="node12" class="node"><title>UsersController</title>
<path fill="none" stroke="black" d="M156.5,319.5C156.5,319.5 235.5,319.5 235.5,319.5 241.5,319.5 247.5,313.5 247.5,307.5 247.5,307.5 247.5,238.5 247.5,238.5 247.5,232.5 241.5,226.5 235.5,226.5 235.5,226.5 156.5,226.5 156.5,226.5 150.5,226.5 144.5,232.5 144.5,238.5 144.5,238.5 144.5,307.5 144.5,307.5 144.5,313.5 150.5,319.5 156.5,319.5"/>
<text text-anchor="middle" x="196" y="241.7" font-family="Times,serif" font-size="14.00">UsersController</text>
<polyline fill="none" stroke="black" points="144.5,249.5 247.5,249.5 "/>
<text text-anchor="start" x="152.5" y="264.7" font-family="Times,serif" font-size="14.00">profile</text>
<polyline fill="none" stroke="black" points="144.5,272.5 247.5,272.5 "/>
<polyline fill="none" stroke="black" points="144.5,296.5 247.5,296.5 "/>
<text text-anchor="start" x="152.5" y="311.7" font-family="Times,serif" font-size="14.00">_layout</text>
</g>
<!-- ApplicationController -->
<g id="node13" class="node"><title>ApplicationController</title>
<path fill="none" stroke="black" d="M300,-289C300,-289 412,-289 412,-289 418,-289 424,-295 424,-301 424,-301 424,-371 424,-371 424,-377 418,-383 412,-383 412,-383 300,-383 300,-383 294,-383 288,-377 288,-371 288,-371 288,-301 288,-301 288,-295 294,-289 300,-289"/>
<text text-anchor="middle" x="356" y="-367.8" font-family="Times,serif" font-size="14.00">ApplicationController</text>
<polyline fill="none" stroke="black" points="288,-360 424,-360 "/>
<polyline fill="none" stroke="black" points="288,-336 424,-336 "/>
<polyline fill="none" stroke="black" points="288,-312 424,-312 "/>
<text text-anchor="start" x="296" y="-296.8" font-family="Times,serif" font-size="14.00">_layout</text>
</g>
<!-- JavasController -->
<g id="node14" class="node"><title>JavasController</title>
<path fill="none" stroke="black" d="M172.5,-288.5C172.5,-288.5 249.5,-288.5 249.5,-288.5 255.5,-288.5 261.5,-294.5 261.5,-300.5 261.5,-300.5 261.5,-399.5 261.5,-399.5 261.5,-405.5 255.5,-411.5 249.5,-411.5 249.5,-411.5 172.5,-411.5 172.5,-411.5 166.5,-411.5 160.5,-405.5 160.5,-399.5 160.5,-399.5 160.5,-300.5 160.5,-300.5 160.5,-294.5 166.5,-288.5 172.5,-288.5"/>
<text text-anchor="middle" x="211" y="-396.3" font-family="Times,serif" font-size="14.00">JavasController</text>
<polyline fill="none" stroke="black" points="160.5,-388.5 261.5,-388.5 "/>
<text text-anchor="start" x="168.5" y="-373.3" font-family="Times,serif" font-size="14.00">pag1</text>
<text text-anchor="start" x="168.5" y="-358.3" font-family="Times,serif" font-size="14.00">pag2</text>
<text text-anchor="start" x="168.5" y="-343.3" font-family="Times,serif" font-size="14.00">pag3</text>
<polyline fill="none" stroke="black" points="160.5,-335.5 261.5,-335.5 "/>
<polyline fill="none" stroke="black" points="160.5,-311.5 261.5,-311.5 "/>
<text text-anchor="start" x="168.5" y="-296.3" font-family="Times,serif" font-size="14.00">_layout</text>
</g>
</g>
</svg>
