<?xml version="1.0" encoding="UTF-8" standalone="no"?>
<!DOCTYPE svg PUBLIC "-//W3C//DTD SVG 1.1//EN"
 "http://www.w3.org/Graphics/SVG/1.1/DTD/svg11.dtd">
<!-- Generated by graphviz version 2.38.0 (20140413.2041)
 -->
<!-- Title: models_diagram Pages: 1 -->
<svg width="561pt" height="230pt"
 viewBox="0.00 0.00 560.50 230.00" xmlns="http://www.w3.org/2000/svg" xmlns:xlink="http://www.w3.org/1999/xlink">
<g id="graph0" class="graph" transform="scale(1 1) rotate(0) translate(4 226)">
<title>models_diagram</title>
<polygon fill="none" stroke="none" points="-4,4 -4,-226 556.5,-226 556.5,4 -4,4"/>
<!-- _diagram_info -->
<g id="node1" class="node"><title>_diagram_info</title>
<text text-anchor="start" x="8" y="-207.6" font-family="Times,serif" font-size="13.00">Models diagram</text>
<text text-anchor="start" x="8" y="-193.6" font-family="Times,serif" font-size="13.00">Date: Dec 12 2016 &#45; 11:19</text>
<text text-anchor="start" x="8" y="-179.6" font-family="Times,serif" font-size="13.00">Migration version: 20161211171448</text>
<text text-anchor="start" x="8" y="-165.6" font-family="Times,serif" font-size="13.00">Generated by RailRoady 1.5.2</text>
<text text-anchor="start" x="8" y="-151.6" font-family="Times,serif" font-size="13.00">http://railroady.prestonlee.com</text>
</g>
<!-- Comment -->
<g id="node2" class="node"><title>Comment</title>
<ellipse fill="none" stroke="black" cx="342" cy="-18" rx="46.2923" ry="18"/>
<text text-anchor="middle" x="342" y="-14.3" font-family="Times,serif" font-size="14.00">Comment</text>
</g>
<!-- Post -->
<g id="node3" class="node"><title>Post</title>
<ellipse fill="none" stroke="black" cx="352" cy="-90" rx="27" ry="18"/>
<text text-anchor="middle" x="352" y="-86.3" font-family="Times,serif" font-size="14.00">Post</text>
</g>
<!-- Post&#45;&gt;Comment -->
<g id="edge1" class="edge"><title>Post&#45;&gt;Comment</title>
<path fill="none" stroke="#44d932" d="M348.427,-63.9868C347.607,-58.2493 346.732,-52.1211 345.899,-46.2929"/>
<ellipse fill="none" stroke="#44d932" cx="349.014" cy="-68.0952" rx="4.00001" ry="4.00001"/>
<polygon fill="#44d932" stroke="#44d932" points="345.882,-46.1748 348.923,-35.6389 345.175,-41.225 344.468,-36.2753 344.468,-36.2753 344.468,-36.2753 345.175,-41.225 340.013,-36.9117 345.882,-46.1748 345.882,-46.1748"/>
</g>
<!-- Category -->
<g id="node4" class="node"><title>Category</title>
<ellipse fill="none" stroke="black" cx="347" cy="-183" rx="42.7926" ry="18"/>
<text text-anchor="middle" x="347" y="-179.3" font-family="Times,serif" font-size="14.00">Category</text>
</g>
<!-- Admin -->
<g id="node5" class="node"><title>Admin</title>
<ellipse fill="none" stroke="black" cx="444" cy="-183" rx="35.9954" ry="18"/>
<text text-anchor="middle" x="444" y="-179.3" font-family="Times,serif" font-size="14.00">Admin</text>
</g>
<!-- Group -->
<g id="node6" class="node"><title>Group</title>
<ellipse fill="none" stroke="black" cx="198" cy="-90" rx="33.2948" ry="18"/>
<text text-anchor="middle" x="198" y="-86.3" font-family="Times,serif" font-size="14.00">Group</text>
</g>
<!-- GroupUser -->
<g id="node7" class="node"><title>GroupUser</title>
<ellipse fill="none" stroke="black" cx="218" cy="-18" rx="50.0912" ry="18"/>
<text text-anchor="middle" x="218" y="-14.3" font-family="Times,serif" font-size="14.00">GroupUser</text>
</g>
<!-- Group&#45;&gt;GroupUser -->
<g id="edge2" class="edge"><title>Group&#45;&gt;GroupUser</title>
<path fill="none" stroke="#42427a" d="M205.066,-64.2675C206.76,-58.34 208.577,-51.9814 210.298,-45.9587"/>
<ellipse fill="none" stroke="#42427a" cx="203.94" cy="-68.2089" rx="4.00001" ry="4.00001"/>
<polygon fill="#42427a" stroke="#42427a" points="210.317,-45.8905 217.391,-37.5116 211.691,-41.0829 213.064,-36.2753 213.064,-36.2753 213.064,-36.2753 211.691,-41.0829 208.737,-35.039 210.317,-45.8905 210.317,-45.8905"/>
</g>
<!-- User -->
<g id="node8" class="node"><title>User</title>
<ellipse fill="none" stroke="black" cx="259" cy="-183" rx="27.0966" ry="18"/>
<text text-anchor="middle" x="259" y="-179.3" font-family="Times,serif" font-size="14.00">User</text>
</g>
<!-- Group&#45;&gt;User -->
<g id="edge3" class="edge"><title>Group&#45;&gt;User</title>
<path fill="none" stroke="#cd1e2c" d="M219.389,-114.022C229.023,-126.916 239.885,-143.027 247.936,-156.328"/>
<polygon fill="#cd1e2c" stroke="#cd1e2c" points="219.374,-114.002 216.844,-103.331 216.325,-110.038 213.277,-106.075 213.277,-106.075 213.277,-106.075 216.325,-110.038 209.71,-108.818 219.374,-114.002 219.374,-114.002"/>
<polygon fill="#cd1e2c" stroke="#cd1e2c" points="248.136,-156.672 249.289,-167.577 250.656,-160.99 253.176,-165.309 253.176,-165.309 253.176,-165.309 250.656,-160.99 257.063,-163.042 248.136,-156.672 248.136,-156.672"/>
</g>
<!-- User&#45;&gt;Comment -->
<g id="edge5" class="edge"><title>User&#45;&gt;Comment</title>
<path fill="none" stroke="#1284fd" d="M271.057,-158.322C286.393,-128.204 312.79,-76.3645 328.698,-45.1232"/>
<ellipse fill="none" stroke="#1284fd" cx="269.077" cy="-162.211" rx="4.00002" ry="4.00002"/>
<polygon fill="#1284fd" stroke="#1284fd" points="328.737,-45.047 337.284,-38.1777 331.006,-40.5914 333.274,-36.1358 333.274,-36.1358 333.274,-36.1358 331.006,-40.5914 329.264,-34.0938 328.737,-45.047 328.737,-45.047"/>
</g>
<!-- User&#45;&gt;Post -->
<g id="edge4" class="edge"><title>User&#45;&gt;Post</title>
<path fill="none" stroke="#fa8cd6" d="M278.349,-161.1C283.675,-155.479 289.5,-149.449 295,-144 305.862,-133.239 318.259,-121.636 328.71,-112.037"/>
<ellipse fill="none" stroke="#fa8cd6" cx="275.546" cy="-164.079" rx="4.00002" ry="4.00002"/>
<polygon fill="#fa8cd6" stroke="#fa8cd6" points="328.883,-111.88 339.301,-108.458 332.575,-108.508 336.266,-105.136 336.266,-105.136 336.266,-105.136 332.575,-108.508 333.232,-101.813 328.883,-111.88 328.883,-111.88"/>
</g>
<!-- User&#45;&gt;Group -->
<g id="edge7" class="edge"><title>User&#45;&gt;Group</title>
<path fill="none" stroke="#4e0739" d="M239.333,-161.265C229.284,-148.019 217.581,-130.746 209.045,-116.641"/>
<ellipse fill="none" stroke="#4e0739" cx="241.949" cy="-164.625" rx="4.00002" ry="4.00002"/>
<polygon fill="#4e0739" stroke="#4e0739" points="208.986,-116.539 207.829,-105.634 206.464,-112.221 203.943,-107.903 203.943,-107.903 203.943,-107.903 206.464,-112.221 200.057,-110.172 208.986,-116.539 208.986,-116.539"/>
</g>
<!-- User&#45;&gt;GroupUser -->
<g id="edge6" class="edge"><title>User&#45;&gt;GroupUser</title>
<path fill="none" stroke="#8a695f" d="M256.281,-156.916C253.459,-134.385 248.28,-100.553 240,-72 237.407,-63.0595 233.777,-53.5849 230.211,-45.157"/>
<ellipse fill="none" stroke="#8a695f" cx="256.771" cy="-160.992" rx="4.00001" ry="4.00001"/>
<polygon fill="#8a695f" stroke="#8a695f" points="230.14,-44.9958 230.241,-34.0303 228.13,-40.4174 226.121,-35.839 226.121,-35.839 226.121,-35.839 228.13,-40.4174 222,-37.6477 230.14,-44.9958 230.14,-44.9958"/>
</g>
<!-- Ability -->
<g id="node9" class="node"><title>Ability</title>
<polygon fill="none" stroke="black" points="552.5,-201 497.5,-201 497.5,-165 552.5,-165 552.5,-201"/>
<text text-anchor="middle" x="525" y="-179.3" font-family="Times,serif" font-size="14.00">Ability</text>
</g>
</g>
</svg>
