<?xml version="1.0" encoding="UTF-8" standalone="no"?>
<!DOCTYPE svg PUBLIC "-//W3C//DTD SVG 1.1//EN"
 "http://www.w3.org/Graphics/SVG/1.1/DTD/svg11.dtd">
<!-- Generated by graphviz version 2.38.0 (20140413.2041)
 -->
<!-- Title: models_diagram Pages: 1 -->
<svg width="1151pt" height="1084pt"
 viewBox="0.00 0.00 1150.50 1084.00" xmlns="http://www.w3.org/2000/svg" xmlns:xlink="http://www.w3.org/1999/xlink">
<g id="graph0" class="graph" transform="scale(1 1) rotate(0) translate(4 1080)">
<title>models_diagram</title>
<polygon fill="none" stroke="none" points="-4,4 -4,-1080 1146.5,-1080 1146.5,4 -4,4"/>
<!-- _diagram_info -->
<g id="node1" class="node"><title>_diagram_info</title>
<text text-anchor="start" x="8" y="-987.1" font-family="Times,serif" font-size="13.00">Models diagram</text>
<text text-anchor="start" x="8" y="-973.1" font-family="Times,serif" font-size="13.00">Date: Dec 07 2016 &#45; 21:29</text>
<text text-anchor="start" x="8" y="-959.1" font-family="Times,serif" font-size="13.00">Migration version: 20161130020931</text>
<text text-anchor="start" x="8" y="-945.1" font-family="Times,serif" font-size="13.00">Generated by RailRoady 1.5.2</text>
<text text-anchor="start" x="8" y="-931.1" font-family="Times,serif" font-size="13.00">http://railroady.prestonlee.com</text>
</g>
<!-- Comment -->
<g id="node2" class="node"><title>Comment</title>
<path fill="none" stroke="black" d="M402,-0.5C402,-0.5 622,-0.5 622,-0.5 628,-0.5 634,-6.5 634,-12.5 634,-12.5 634,-124.5 634,-124.5 634,-130.5 628,-136.5 622,-136.5 622,-136.5 402,-136.5 402,-136.5 396,-136.5 390,-130.5 390,-124.5 390,-124.5 390,-12.5 390,-12.5 390,-6.5 396,-0.5 402,-0.5"/>
<text text-anchor="middle" x="512" y="-121.3" font-family="Times,serif" font-size="14.00">Comment</text>
<polyline fill="none" stroke="black" points="390,-113.5 634,-113.5 "/>
<text text-anchor="start" x="398" y="-98.3" font-family="Times,serif" font-size="14.00">id :integer</text>
<text text-anchor="start" x="398" y="-83.3" font-family="Times,serif" font-size="14.00">type :character varying</text>
<text text-anchor="start" x="398" y="-68.3" font-family="Times,serif" font-size="14.00">content :text</text>
<text text-anchor="start" x="398" y="-53.3" font-family="Times,serif" font-size="14.00">post_id :integer</text>
<text text-anchor="start" x="398" y="-38.3" font-family="Times,serif" font-size="14.00">user_id :integer</text>
<text text-anchor="start" x="398" y="-23.3" font-family="Times,serif" font-size="14.00">created_at :timestamp without time zone</text>
<text text-anchor="start" x="398" y="-8.3" font-family="Times,serif" font-size="14.00">updated_at :timestamp without time zone</text>
</g>
<!-- Post -->
<g id="node3" class="node"><title>Post</title>
<path fill="none" stroke="black" d="M477,-173.5C477,-173.5 697,-173.5 697,-173.5 703,-173.5 709,-179.5 709,-185.5 709,-185.5 709,-372.5 709,-372.5 709,-378.5 703,-384.5 697,-384.5 697,-384.5 477,-384.5 477,-384.5 471,-384.5 465,-378.5 465,-372.5 465,-372.5 465,-185.5 465,-185.5 465,-179.5 471,-173.5 477,-173.5"/>
<text text-anchor="middle" x="587" y="-369.3" font-family="Times,serif" font-size="14.00">Post</text>
<polyline fill="none" stroke="black" points="465,-361.5 709,-361.5 "/>
<text text-anchor="start" x="473" y="-346.3" font-family="Times,serif" font-size="14.00">id :integer</text>
<text text-anchor="start" x="473" y="-331.3" font-family="Times,serif" font-size="14.00">title :character varying</text>
<text text-anchor="start" x="473" y="-316.3" font-family="Times,serif" font-size="14.00">content :text</text>
<text text-anchor="start" x="473" y="-301.3" font-family="Times,serif" font-size="14.00">category_id :integer</text>
<text text-anchor="start" x="473" y="-286.3" font-family="Times,serif" font-size="14.00">user_id :integer</text>
<text text-anchor="start" x="473" y="-271.3" font-family="Times,serif" font-size="14.00">likecount :integer</text>
<text text-anchor="start" x="473" y="-256.3" font-family="Times,serif" font-size="14.00">dislikecount :integer</text>
<text text-anchor="start" x="473" y="-241.3" font-family="Times,serif" font-size="14.00">reportcount :integer</text>
<text text-anchor="start" x="473" y="-226.3" font-family="Times,serif" font-size="14.00">commentcount :integer</text>
<text text-anchor="start" x="473" y="-211.3" font-family="Times,serif" font-size="14.00">created_at :timestamp without time zone</text>
<text text-anchor="start" x="473" y="-196.3" font-family="Times,serif" font-size="14.00">updated_at :timestamp without time zone</text>
<text text-anchor="start" x="473" y="-181.3" font-family="Times,serif" font-size="14.00">access :character varying</text>
</g>
<!-- Post&#45;&gt;Comment -->
<g id="edge1" class="edge"><title>Post&#45;&gt;Comment</title>
<path fill="none" stroke="#711616" d="M546.653,-165.836C544.308,-159.317 541.978,-152.839 539.7,-146.506"/>
<ellipse fill="none" stroke="#711616" cx="548.036" cy="-169.681" rx="4.00001" ry="4.00001"/>
<polygon fill="#711616" stroke="#711616" points="539.553,-146.097 540.403,-135.164 537.861,-141.392 536.168,-136.687 536.168,-136.687 536.168,-136.687 537.861,-141.392 531.934,-138.211 539.553,-146.097 539.553,-146.097"/>
</g>
<!-- Category -->
<g id="node4" class="node"><title>Category</title>
<path fill="none" stroke="black" d="M506,-909.5C506,-909.5 726,-909.5 726,-909.5 732,-909.5 738,-915.5 738,-921.5 738,-921.5 738,-1003.5 738,-1003.5 738,-1009.5 732,-1015.5 726,-1015.5 726,-1015.5 506,-1015.5 506,-1015.5 500,-1015.5 494,-1009.5 494,-1003.5 494,-1003.5 494,-921.5 494,-921.5 494,-915.5 500,-909.5 506,-909.5"/>
<text text-anchor="middle" x="616" y="-1000.3" font-family="Times,serif" font-size="14.00">Category</text>
<polyline fill="none" stroke="black" points="494,-992.5 738,-992.5 "/>
<text text-anchor="start" x="502" y="-977.3" font-family="Times,serif" font-size="14.00">id :integer</text>
<text text-anchor="start" x="502" y="-962.3" font-family="Times,serif" font-size="14.00">name :character varying</text>
<text text-anchor="start" x="502" y="-947.3" font-family="Times,serif" font-size="14.00">color :character varying</text>
<text text-anchor="start" x="502" y="-932.3" font-family="Times,serif" font-size="14.00">created_at :timestamp without time zone</text>
<text text-anchor="start" x="502" y="-917.3" font-family="Times,serif" font-size="14.00">updated_at :timestamp without time zone</text>
</g>
<!-- Admin -->
<g id="node5" class="node"><title>Admin</title>
<path fill="none" stroke="black" d="M768.5,-849.5C768.5,-849.5 1057.5,-849.5 1057.5,-849.5 1063.5,-849.5 1069.5,-855.5 1069.5,-861.5 1069.5,-861.5 1069.5,-1063.5 1069.5,-1063.5 1069.5,-1069.5 1063.5,-1075.5 1057.5,-1075.5 1057.5,-1075.5 768.5,-1075.5 768.5,-1075.5 762.5,-1075.5 756.5,-1069.5 756.5,-1063.5 756.5,-1063.5 756.5,-861.5 756.5,-861.5 756.5,-855.5 762.5,-849.5 768.5,-849.5"/>
<text text-anchor="middle" x="913" y="-1060.3" font-family="Times,serif" font-size="14.00">Admin</text>
<polyline fill="none" stroke="black" points="756.5,-1052.5 1069.5,-1052.5 "/>
<text text-anchor="start" x="764.5" y="-1037.3" font-family="Times,serif" font-size="14.00">id :integer</text>
<text text-anchor="start" x="764.5" y="-1022.3" font-family="Times,serif" font-size="14.00">email :character varying</text>
<text text-anchor="start" x="764.5" y="-1007.3" font-family="Times,serif" font-size="14.00">encrypted_password :character varying</text>
<text text-anchor="start" x="764.5" y="-992.3" font-family="Times,serif" font-size="14.00">reset_password_token :character varying</text>
<text text-anchor="start" x="764.5" y="-977.3" font-family="Times,serif" font-size="14.00">reset_password_sent_at :timestamp without time zone</text>
<text text-anchor="start" x="764.5" y="-962.3" font-family="Times,serif" font-size="14.00">remember_created_at :timestamp without time zone</text>
<text text-anchor="start" x="764.5" y="-947.3" font-family="Times,serif" font-size="14.00">sign_in_count :integer</text>
<text text-anchor="start" x="764.5" y="-932.3" font-family="Times,serif" font-size="14.00">current_sign_in_at :timestamp without time zone</text>
<text text-anchor="start" x="764.5" y="-917.3" font-family="Times,serif" font-size="14.00">last_sign_in_at :timestamp without time zone</text>
<text text-anchor="start" x="764.5" y="-902.3" font-family="Times,serif" font-size="14.00">current_sign_in_ip :inet</text>
<text text-anchor="start" x="764.5" y="-887.3" font-family="Times,serif" font-size="14.00">last_sign_in_ip :inet</text>
<text text-anchor="start" x="764.5" y="-872.3" font-family="Times,serif" font-size="14.00">created_at :timestamp without time zone</text>
<text text-anchor="start" x="764.5" y="-857.3" font-family="Times,serif" font-size="14.00">updated_at :timestamp without time zone</text>
</g>
<!-- Group -->
<g id="node6" class="node"><title>Group</title>
<path fill="none" stroke="black" d="M244,-909.5C244,-909.5 464,-909.5 464,-909.5 470,-909.5 476,-915.5 476,-921.5 476,-921.5 476,-1003.5 476,-1003.5 476,-1009.5 470,-1015.5 464,-1015.5 464,-1015.5 244,-1015.5 244,-1015.5 238,-1015.5 232,-1009.5 232,-1003.5 232,-1003.5 232,-921.5 232,-921.5 232,-915.5 238,-909.5 244,-909.5"/>
<text text-anchor="middle" x="354" y="-1000.3" font-family="Times,serif" font-size="14.00">Group</text>
<polyline fill="none" stroke="black" points="232,-992.5 476,-992.5 "/>
<text text-anchor="start" x="240" y="-977.3" font-family="Times,serif" font-size="14.00">id :integer</text>
<text text-anchor="start" x="240" y="-962.3" font-family="Times,serif" font-size="14.00">name :character varying</text>
<text text-anchor="start" x="240" y="-947.3" font-family="Times,serif" font-size="14.00">user_id :integer</text>
<text text-anchor="start" x="240" y="-932.3" font-family="Times,serif" font-size="14.00">created_at :timestamp without time zone</text>
<text text-anchor="start" x="240" y="-917.3" font-family="Times,serif" font-size="14.00">updated_at :timestamp without time zone</text>
</g>
<!-- GroupUser -->
<g id="node7" class="node"><title>GroupUser</title>
<path fill="none" stroke="black" d="M168,-226C168,-226 388,-226 388,-226 394,-226 400,-232 400,-238 400,-238 400,-320 400,-320 400,-326 394,-332 388,-332 388,-332 168,-332 168,-332 162,-332 156,-326 156,-320 156,-320 156,-238 156,-238 156,-232 162,-226 168,-226"/>
<text text-anchor="middle" x="278" y="-316.8" font-family="Times,serif" font-size="14.00">GroupUser</text>
<polyline fill="none" stroke="black" points="156,-309 400,-309 "/>
<text text-anchor="start" x="164" y="-293.8" font-family="Times,serif" font-size="14.00">id :integer</text>
<text text-anchor="start" x="164" y="-278.8" font-family="Times,serif" font-size="14.00">user_id :integer</text>
<text text-anchor="start" x="164" y="-263.8" font-family="Times,serif" font-size="14.00">group_id :integer</text>
<text text-anchor="start" x="164" y="-248.8" font-family="Times,serif" font-size="14.00">created_at :timestamp without time zone</text>
<text text-anchor="start" x="164" y="-233.8" font-family="Times,serif" font-size="14.00">updated_at :timestamp without time zone</text>
</g>
<!-- Group&#45;&gt;GroupUser -->
<g id="edge2" class="edge"><title>Group&#45;&gt;GroupUser</title>
<path fill="none" stroke="#d3f3c6" d="M317.152,-902.135C302.898,-875.85 288.283,-843.928 281,-813 241.835,-646.673 257.61,-442.974 269.444,-342.359"/>
<ellipse fill="none" stroke="#d3f3c6" cx="319.224" cy="-905.891" rx="4.00002" ry="4.00002"/>
<polygon fill="#d3f3c6" stroke="#d3f3c6" points="269.452,-342.291 275.115,-332.9 270.05,-337.327 270.647,-332.362 270.647,-332.362 270.647,-332.362 270.05,-337.327 266.179,-331.825 269.452,-342.291 269.452,-342.291"/>
</g>
<!-- User -->
<g id="node8" class="node"><title>User</title>
<path fill="none" stroke="black" d="M301.5,-421.5C301.5,-421.5 590.5,-421.5 590.5,-421.5 596.5,-421.5 602.5,-427.5 602.5,-433.5 602.5,-433.5 602.5,-800.5 602.5,-800.5 602.5,-806.5 596.5,-812.5 590.5,-812.5 590.5,-812.5 301.5,-812.5 301.5,-812.5 295.5,-812.5 289.5,-806.5 289.5,-800.5 289.5,-800.5 289.5,-433.5 289.5,-433.5 289.5,-427.5 295.5,-421.5 301.5,-421.5"/>
<text text-anchor="middle" x="446" y="-797.3" font-family="Times,serif" font-size="14.00">User</text>
<polyline fill="none" stroke="black" points="289.5,-789.5 602.5,-789.5 "/>
<text text-anchor="start" x="297.5" y="-774.3" font-family="Times,serif" font-size="14.00">id :integer</text>
<text text-anchor="start" x="297.5" y="-759.3" font-family="Times,serif" font-size="14.00">email :character varying</text>
<text text-anchor="start" x="297.5" y="-744.3" font-family="Times,serif" font-size="14.00">encrypted_password :character varying</text>
<text text-anchor="start" x="297.5" y="-729.3" font-family="Times,serif" font-size="14.00">reset_password_token :character varying</text>
<text text-anchor="start" x="297.5" y="-714.3" font-family="Times,serif" font-size="14.00">reset_password_sent_at :timestamp without time zone</text>
<text text-anchor="start" x="297.5" y="-699.3" font-family="Times,serif" font-size="14.00">remember_created_at :timestamp without time zone</text>
<text text-anchor="start" x="297.5" y="-684.3" font-family="Times,serif" font-size="14.00">sign_in_count :integer</text>
<text text-anchor="start" x="297.5" y="-669.3" font-family="Times,serif" font-size="14.00">current_sign_in_at :timestamp without time zone</text>
<text text-anchor="start" x="297.5" y="-654.3" font-family="Times,serif" font-size="14.00">last_sign_in_at :timestamp without time zone</text>
<text text-anchor="start" x="297.5" y="-639.3" font-family="Times,serif" font-size="14.00">current_sign_in_ip :inet</text>
<text text-anchor="start" x="297.5" y="-624.3" font-family="Times,serif" font-size="14.00">last_sign_in_ip :inet</text>
<text text-anchor="start" x="297.5" y="-609.3" font-family="Times,serif" font-size="14.00">name :character varying</text>
<text text-anchor="start" x="297.5" y="-594.3" font-family="Times,serif" font-size="14.00">nationality :character varying</text>
<text text-anchor="start" x="297.5" y="-579.3" font-family="Times,serif" font-size="14.00">gender :character varying</text>
<text text-anchor="start" x="297.5" y="-564.3" font-family="Times,serif" font-size="14.00">age :integer</text>
<text text-anchor="start" x="297.5" y="-549.3" font-family="Times,serif" font-size="14.00">description :text</text>
<text text-anchor="start" x="297.5" y="-534.3" font-family="Times,serif" font-size="14.00">postcount :integer</text>
<text text-anchor="start" x="297.5" y="-519.3" font-family="Times,serif" font-size="14.00">commentcount :integer</text>
<text text-anchor="start" x="297.5" y="-504.3" font-family="Times,serif" font-size="14.00">likecount :integer</text>
<text text-anchor="start" x="297.5" y="-489.3" font-family="Times,serif" font-size="14.00">dislikecount :integer</text>
<text text-anchor="start" x="297.5" y="-474.3" font-family="Times,serif" font-size="14.00">reportcount :integer</text>
<text text-anchor="start" x="297.5" y="-459.3" font-family="Times,serif" font-size="14.00">created_at :timestamp without time zone</text>
<text text-anchor="start" x="297.5" y="-444.3" font-family="Times,serif" font-size="14.00">updated_at :timestamp without time zone</text>
<text text-anchor="start" x="297.5" y="-429.3" font-family="Times,serif" font-size="14.00">role :character varying</text>
</g>
<!-- Group&#45;&gt;User -->
<g id="edge3" class="edge"><title>Group&#45;&gt;User</title>
<path fill="none" stroke="#eb0066" d="M370.564,-899.656C376.56,-877.267 383.708,-850.58 391.178,-822.69"/>
<polygon fill="#eb0066" stroke="#eb0066" points="370.56,-899.67 363.626,-908.166 369.266,-904.5 367.973,-909.33 367.973,-909.33 367.973,-909.33 369.266,-904.5 372.32,-910.494 370.56,-899.67 370.56,-899.67"/>
<polygon fill="#eb0066" stroke="#eb0066" points="391.245,-822.439 398.179,-813.943 392.538,-817.609 393.832,-812.779 393.832,-812.779 393.832,-812.779 392.538,-817.609 389.485,-811.615 391.245,-822.439 391.245,-822.439"/>
</g>
<!-- User&#45;&gt;Comment -->
<g id="edge5" class="edge"><title>User&#45;&gt;Comment</title>
<path fill="none" stroke="#11e757" d="M430.682,-413.033C430.074,-336.662 435.639,-249.766 456,-173 458.41,-163.913 461.763,-154.749 465.642,-145.829"/>
<ellipse fill="none" stroke="#11e757" cx="430.729" cy="-417.338" rx="4" ry="4"/>
<polygon fill="#11e757" stroke="#11e757" points="465.69,-145.725 473.948,-138.51 467.774,-141.18 469.858,-136.635 469.858,-136.635 469.858,-136.635 467.774,-141.18 465.767,-134.759 465.69,-145.725 465.69,-145.725"/>
</g>
<!-- User&#45;&gt;Post -->
<g id="edge4" class="edge"><title>User&#45;&gt;Post</title>
<path fill="none" stroke="#b73a3d" d="M530.988,-413.476C533.764,-406.861 536.508,-400.321 539.203,-393.899"/>
<ellipse fill="none" stroke="#b73a3d" cx="529.364" cy="-417.345" rx="4.00002" ry="4.00002"/>
<polygon fill="#b73a3d" stroke="#b73a3d" points="539.244,-393.801 547.263,-386.321 541.179,-389.191 543.114,-384.58 543.114,-384.58 543.114,-384.58 541.179,-389.191 538.964,-382.839 539.244,-393.801 539.244,-393.801"/>
</g>
<!-- User&#45;&gt;GroupUser -->
<g id="edge6" class="edge"><title>User&#45;&gt;GroupUser</title>
<path fill="none" stroke="#4e16e6" d="M344.888,-413.775C331.792,-387.584 319.276,-362.552 308.687,-341.374"/>
<ellipse fill="none" stroke="#4e16e6" cx="346.728" cy="-417.456" rx="4.00002" ry="4.00002"/>
<polygon fill="#4e16e6" stroke="#4e16e6" points="308.589,-341.178 308.142,-330.221 306.353,-336.706 304.117,-332.233 304.117,-332.233 304.117,-332.233 306.353,-336.706 300.092,-334.246 308.589,-341.178 308.589,-341.178"/>
</g>
<!-- Ability -->
<g id="node9" class="node"><title>Ability</title>
<polygon fill="none" stroke="black" points="1087.5,-939.5 1087.5,-985.5 1142.5,-985.5 1142.5,-939.5 1087.5,-939.5"/>
<text text-anchor="middle" x="1115" y="-970.3" font-family="Times,serif" font-size="14.00">Ability</text>
<polyline fill="none" stroke="black" points="1087.5,-962.5 1142.5,-962.5 "/>
<text text-anchor="middle" x="1115" y="-947.3" font-family="Times,serif" font-size="14.00"> </text>
</g>
</g>
</svg>
