<?xml version="1.0" encoding="UTF-8" standalone="no"?>
<!DOCTYPE svg PUBLIC "-//W3C//DTD SVG 1.1//EN"
 "http://www.w3.org/Graphics/SVG/1.1/DTD/svg11.dtd">
<!-- Generated by graphviz version 2.38.0 (20140413.2041)
 -->
<!-- Title: models_diagram Pages: 1 -->
<svg width="573pt" height="302pt"
 viewBox="0.00 0.00 572.50 302.00" xmlns="http://www.w3.org/2000/svg" xmlns:xlink="http://www.w3.org/1999/xlink">
<g id="graph0" class="graph" transform="scale(1 1) rotate(0) translate(4 298)">
<title>models_diagram</title>
<polygon fill="none" stroke="none" points="-4,4 -4,-298 568.5,-298 568.5,4 -4,4"/>
<!-- _diagram_info -->
<g id="node1" class="node"><title>_diagram_info</title>
<text text-anchor="start" x="8" y="-279.6" font-family="Times,serif" font-size="13.00">Models diagram</text>
<text text-anchor="start" x="8" y="-265.6" font-family="Times,serif" font-size="13.00">Date: Dec 07 2016 &#45; 21:29</text>
<text text-anchor="start" x="8" y="-251.6" font-family="Times,serif" font-size="13.00">Migration version: 20161130020931</text>
<text text-anchor="start" x="8" y="-237.6" font-family="Times,serif" font-size="13.00">Generated by RailRoady 1.5.2</text>
<text text-anchor="start" x="8" y="-223.6" font-family="Times,serif" font-size="13.00">http://railroady.prestonlee.com</text>
</g>
<!-- Comment -->
<g id="node2" class="node"><title>Comment</title>
<ellipse fill="none" stroke="black" cx="325" cy="-18" rx="46.2923" ry="18"/>
<text text-anchor="middle" x="325" y="-14.3" font-family="Times,serif" font-size="14.00">Comment</text>
</g>
<!-- Post -->
<g id="node3" class="node"><title>Post</title>
<ellipse fill="none" stroke="black" cx="353" cy="-90" rx="27" ry="18"/>
<text text-anchor="middle" x="353" y="-86.3" font-family="Times,serif" font-size="14.00">Post</text>
</g>
<!-- Post&#45;&gt;Comment -->
<g id="edge1" class="edge"><title>Post&#45;&gt;Comment</title>
<path fill="none" stroke="#1aef93" d="M343.311,-64.7779C340.818,-58.544 338.122,-51.8046 335.585,-45.4634"/>
<ellipse fill="none" stroke="#1aef93" cx="344.879" cy="-68.6971" rx="4.00001" ry="4.00001"/>
<polygon fill="#1aef93" stroke="#1aef93" points="335.496,-45.241 335.961,-34.2849 333.639,-40.5986 331.782,-35.9562 331.782,-35.9562 331.782,-35.9562 333.639,-40.5986 327.604,-37.6275 335.496,-45.241 335.496,-45.241"/>
</g>
<!-- Category -->
<g id="node4" class="node"><title>Category</title>
<ellipse fill="none" stroke="black" cx="359" cy="-255" rx="42.7926" ry="18"/>
<text text-anchor="middle" x="359" y="-251.3" font-family="Times,serif" font-size="14.00">Category</text>
</g>
<!-- Admin -->
<g id="node5" class="node"><title>Admin</title>
<ellipse fill="none" stroke="black" cx="456" cy="-255" rx="35.9954" ry="18"/>
<text text-anchor="middle" x="456" y="-251.3" font-family="Times,serif" font-size="14.00">Admin</text>
</g>
<!-- Group -->
<g id="node6" class="node"><title>Group</title>
<ellipse fill="none" stroke="black" cx="265" cy="-255" rx="33.2948" ry="18"/>
<text text-anchor="middle" x="265" y="-251.3" font-family="Times,serif" font-size="14.00">Group</text>
</g>
<!-- GroupUser -->
<g id="node7" class="node"><title>GroupUser</title>
<ellipse fill="none" stroke="black" cx="220" cy="-90" rx="50.0912" ry="18"/>
<text text-anchor="middle" x="220" y="-86.3" font-family="Times,serif" font-size="14.00">GroupUser</text>
</g>
<!-- Group&#45;&gt;GroupUser -->
<g id="edge2" class="edge"><title>Group&#45;&gt;GroupUser</title>
<path fill="none" stroke="#939cb3" d="M258.163,-229.236C249.856,-199.145 235.896,-148.577 227.359,-117.657"/>
<ellipse fill="none" stroke="#939cb3" cx="259.289" cy="-233.314" rx="4.00001" ry="4.00001"/>
<polygon fill="#939cb3" stroke="#939cb3" points="227.35,-117.622 229.026,-106.785 226.019,-112.802 224.688,-107.983 224.688,-107.983 224.688,-107.983 226.019,-112.802 220.351,-109.18 227.35,-117.622 227.35,-117.622"/>
</g>
<!-- User -->
<g id="node8" class="node"><title>User</title>
<ellipse fill="none" stroke="black" cx="292" cy="-162" rx="27.0966" ry="18"/>
<text text-anchor="middle" x="292" y="-158.3" font-family="Times,serif" font-size="14.00">User</text>
</g>
<!-- Group&#45;&gt;User -->
<g id="edge3" class="edge"><title>Group&#45;&gt;User</title>
<path fill="none" stroke="#c4ec47" d="M273.034,-226.922C276.55,-215.073 280.66,-201.218 284.154,-189.443"/>
<polygon fill="#c4ec47" stroke="#c4ec47" points="272.923,-227.297 265.764,-235.604 271.501,-232.09 270.078,-236.884 270.078,-236.884 270.078,-236.884 271.501,-232.09 274.393,-238.164 272.923,-227.297 272.923,-227.297"/>
<polygon fill="#c4ec47" stroke="#c4ec47" points="284.191,-189.319 291.35,-181.012 285.613,-184.526 287.036,-179.732 287.036,-179.732 287.036,-179.732 285.613,-184.526 282.721,-178.452 284.191,-189.319 284.191,-189.319"/>
</g>
<!-- User&#45;&gt;Comment -->
<g id="edge5" class="edge"><title>User&#45;&gt;Comment</title>
<path fill="none" stroke="#e71e00" d="M297.756,-136.233C303.602,-111.076 312.632,-72.218 318.676,-46.2145"/>
<ellipse fill="none" stroke="#e71e00" cx="296.821" cy="-140.257" rx="4.00001" ry="4.00001"/>
<polygon fill="#e71e00" stroke="#e71e00" points="318.723,-46.0082 325.37,-37.2865 319.855,-41.138 320.987,-36.2678 320.987,-36.2678 320.987,-36.2678 319.855,-41.138 316.604,-35.2491 318.723,-46.0082 318.723,-46.0082"/>
</g>
<!-- User&#45;&gt;Post -->
<g id="edge4" class="edge"><title>User&#45;&gt;Post</title>
<path fill="none" stroke="#5a61bf" d="M310.55,-139.713C317.703,-131.505 325.898,-122.101 333.167,-113.759"/>
<ellipse fill="none" stroke="#5a61bf" cx="307.864" cy="-142.795" rx="4.00002" ry="4.00002"/>
<polygon fill="#5a61bf" stroke="#5a61bf" points="333.22,-113.698 343.182,-109.116 336.505,-109.929 339.79,-106.159 339.79,-106.159 339.79,-106.159 336.505,-109.929 336.397,-103.203 333.22,-113.698 333.22,-113.698"/>
</g>
<!-- User&#45;&gt;GroupUser -->
<g id="edge6" class="edge"><title>User&#45;&gt;GroupUser</title>
<path fill="none" stroke="#046281" d="M271.253,-140.829C262.758,-132.57 252.873,-122.96 244.064,-114.395"/>
<ellipse fill="none" stroke="#046281" cx="274.214" cy="-143.708" rx="4.00002" ry="4.00002"/>
<polygon fill="#046281" stroke="#046281" points="243.831,-114.169 239.798,-103.972 240.246,-110.684 236.661,-107.198 236.661,-107.198 236.661,-107.198 240.246,-110.684 233.524,-110.425 243.831,-114.169 243.831,-114.169"/>
</g>
<!-- Ability -->
<g id="node9" class="node"><title>Ability</title>
<polygon fill="none" stroke="black" points="564.5,-273 509.5,-273 509.5,-237 564.5,-237 564.5,-273"/>
<text text-anchor="middle" x="537" y="-251.3" font-family="Times,serif" font-size="14.00">Ability</text>
</g>
</g>
</svg>
