<?xml version="1.0" encoding="UTF-8" standalone="no"?>
<!DOCTYPE svg PUBLIC "-//W3C//DTD SVG 1.1//EN"
 "http://www.w3.org/Graphics/SVG/1.1/DTD/svg11.dtd">
<!-- Generated by graphviz version 2.38.0 (20140413.2041)
 -->
<!-- Title: models_diagram Pages: 1 -->
<svg width="958pt" height="866pt"
 viewBox="0.00 0.00 957.50 866.00" xmlns="http://www.w3.org/2000/svg" xmlns:xlink="http://www.w3.org/1999/xlink">
<g id="graph0" class="graph" transform="scale(1 1) rotate(0) translate(4 862)">
<title>models_diagram</title>
<polygon fill="none" stroke="none" points="-4,4 -4,-862 953.5,-862 953.5,4 -4,4"/>
<!-- _diagram_info -->
<g id="node1" class="node"><title>_diagram_info</title>
<text text-anchor="start" x="8" y="-679.1" font-family="Times,serif" font-size="13.00">Models diagram</text>
<text text-anchor="start" x="8" y="-665.1" font-family="Times,serif" font-size="13.00">Date: Dec 12 2016 &#45; 11:19</text>
<text text-anchor="start" x="8" y="-651.1" font-family="Times,serif" font-size="13.00">Migration version: 20161211171448</text>
<text text-anchor="start" x="8" y="-637.1" font-family="Times,serif" font-size="13.00">Generated by RailRoady 1.5.2</text>
<text text-anchor="start" x="8" y="-623.1" font-family="Times,serif" font-size="13.00">http://railroady.prestonlee.com</text>
</g>
<!-- Comment -->
<g id="node2" class="node"><title>Comment</title>
<path fill="none" stroke="black" d="M448,-0.5C448,-0.5 668,-0.5 668,-0.5 674,-0.5 680,-6.5 680,-12.5 680,-12.5 680,-124.5 680,-124.5 680,-130.5 674,-136.5 668,-136.5 668,-136.5 448,-136.5 448,-136.5 442,-136.5 436,-130.5 436,-124.5 436,-124.5 436,-12.5 436,-12.5 436,-6.5 442,-0.5 448,-0.5"/>
<text text-anchor="middle" x="558" y="-121.3" font-family="Times,serif" font-size="14.00">Comment</text>
<polyline fill="none" stroke="black" points="436,-113.5 680,-113.5 "/>
<text text-anchor="start" x="444" y="-98.3" font-family="Times,serif" font-size="14.00">id :integer</text>
<text text-anchor="start" x="444" y="-83.3" font-family="Times,serif" font-size="14.00">comment_type :character varying</text>
<text text-anchor="start" x="444" y="-68.3" font-family="Times,serif" font-size="14.00">content :text</text>
<text text-anchor="start" x="444" y="-53.3" font-family="Times,serif" font-size="14.00">post_id :integer</text>
<text text-anchor="start" x="444" y="-38.3" font-family="Times,serif" font-size="14.00">user_id :integer</text>
<text text-anchor="start" x="444" y="-23.3" font-family="Times,serif" font-size="14.00">created_at :timestamp without time zone</text>
<text text-anchor="start" x="444" y="-8.3" font-family="Times,serif" font-size="14.00">updated_at :timestamp without time zone</text>
</g>
<!-- Post -->
<g id="node3" class="node"><title>Post</title>
<path fill="none" stroke="black" d="M467,-173.5C467,-173.5 687,-173.5 687,-173.5 693,-173.5 699,-179.5 699,-185.5 699,-185.5 699,-402.5 699,-402.5 699,-408.5 693,-414.5 687,-414.5 687,-414.5 467,-414.5 467,-414.5 461,-414.5 455,-408.5 455,-402.5 455,-402.5 455,-185.5 455,-185.5 455,-179.5 461,-173.5 467,-173.5"/>
<text text-anchor="middle" x="577" y="-399.3" font-family="Times,serif" font-size="14.00">Post</text>
<polyline fill="none" stroke="black" points="455,-391.5 699,-391.5 "/>
<text text-anchor="start" x="463" y="-376.3" font-family="Times,serif" font-size="14.00">id :integer</text>
<text text-anchor="start" x="463" y="-361.3" font-family="Times,serif" font-size="14.00">title :character varying</text>
<text text-anchor="start" x="463" y="-346.3" font-family="Times,serif" font-size="14.00">content :text</text>
<text text-anchor="start" x="463" y="-331.3" font-family="Times,serif" font-size="14.00">user_id :integer</text>
<text text-anchor="start" x="463" y="-316.3" font-family="Times,serif" font-size="14.00">likecount :integer</text>
<text text-anchor="start" x="463" y="-301.3" font-family="Times,serif" font-size="14.00">dislikecount :integer</text>
<text text-anchor="start" x="463" y="-286.3" font-family="Times,serif" font-size="14.00">reportcount :integer</text>
<text text-anchor="start" x="463" y="-271.3" font-family="Times,serif" font-size="14.00">commentcount :integer</text>
<text text-anchor="start" x="463" y="-256.3" font-family="Times,serif" font-size="14.00">created_at :timestamp without time zone</text>
<text text-anchor="start" x="463" y="-241.3" font-family="Times,serif" font-size="14.00">updated_at :timestamp without time zone</text>
<text text-anchor="start" x="463" y="-226.3" font-family="Times,serif" font-size="14.00">access :character varying</text>
<text text-anchor="start" x="463" y="-211.3" font-family="Times,serif" font-size="14.00">public :boolean</text>
<text text-anchor="start" x="463" y="-196.3" font-family="Times,serif" font-size="14.00">category :character varying</text>
<text text-anchor="start" x="463" y="-181.3" font-family="Times,serif" font-size="14.00">photo :character varying</text>
</g>
<!-- Post&#45;&gt;Comment -->
<g id="edge1" class="edge"><title>Post&#45;&gt;Comment</title>
<path fill="none" stroke="#40a94f" d="M566.134,-165.183C565.604,-158.942 565.079,-152.769 564.567,-146.745"/>
<ellipse fill="none" stroke="#40a94f" cx="566.494" cy="-169.413" rx="4" ry="4"/>
<polygon fill="#40a94f" stroke="#40a94f" points="564.565,-146.725 568.202,-136.38 564.142,-141.743 563.718,-136.761 563.718,-136.761 563.718,-136.761 564.142,-141.743 559.234,-137.142 564.565,-146.725 564.565,-146.725"/>
</g>
<!-- Admin -->
<g id="node4" class="node"><title>Admin</title>
<path fill="none" stroke="black" d="M575.5,-541.5C575.5,-541.5 864.5,-541.5 864.5,-541.5 870.5,-541.5 876.5,-547.5 876.5,-553.5 876.5,-553.5 876.5,-755.5 876.5,-755.5 876.5,-761.5 870.5,-767.5 864.5,-767.5 864.5,-767.5 575.5,-767.5 575.5,-767.5 569.5,-767.5 563.5,-761.5 563.5,-755.5 563.5,-755.5 563.5,-553.5 563.5,-553.5 563.5,-547.5 569.5,-541.5 575.5,-541.5"/>
<text text-anchor="middle" x="720" y="-752.3" font-family="Times,serif" font-size="14.00">Admin</text>
<polyline fill="none" stroke="black" points="563.5,-744.5 876.5,-744.5 "/>
<text text-anchor="start" x="571.5" y="-729.3" font-family="Times,serif" font-size="14.00">id :integer</text>
<text text-anchor="start" x="571.5" y="-714.3" font-family="Times,serif" font-size="14.00">email :character varying</text>
<text text-anchor="start" x="571.5" y="-699.3" font-family="Times,serif" font-size="14.00">encrypted_password :character varying</text>
<text text-anchor="start" x="571.5" y="-684.3" font-family="Times,serif" font-size="14.00">reset_password_token :character varying</text>
<text text-anchor="start" x="571.5" y="-669.3" font-family="Times,serif" font-size="14.00">reset_password_sent_at :timestamp without time zone</text>
<text text-anchor="start" x="571.5" y="-654.3" font-family="Times,serif" font-size="14.00">remember_created_at :timestamp without time zone</text>
<text text-anchor="start" x="571.5" y="-639.3" font-family="Times,serif" font-size="14.00">sign_in_count :integer</text>
<text text-anchor="start" x="571.5" y="-624.3" font-family="Times,serif" font-size="14.00">current_sign_in_at :timestamp without time zone</text>
<text text-anchor="start" x="571.5" y="-609.3" font-family="Times,serif" font-size="14.00">last_sign_in_at :timestamp without time zone</text>
<text text-anchor="start" x="571.5" y="-594.3" font-family="Times,serif" font-size="14.00">current_sign_in_ip :inet</text>
<text text-anchor="start" x="571.5" y="-579.3" font-family="Times,serif" font-size="14.00">last_sign_in_ip :inet</text>
<text text-anchor="start" x="571.5" y="-564.3" font-family="Times,serif" font-size="14.00">created_at :timestamp without time zone</text>
<text text-anchor="start" x="571.5" y="-549.3" font-family="Times,serif" font-size="14.00">updated_at :timestamp without time zone</text>
</g>
<!-- Group -->
<g id="node5" class="node"><title>Group</title>
<path fill="none" stroke="black" d="M129,-233.5C129,-233.5 349,-233.5 349,-233.5 355,-233.5 361,-239.5 361,-245.5 361,-245.5 361,-342.5 361,-342.5 361,-348.5 355,-354.5 349,-354.5 349,-354.5 129,-354.5 129,-354.5 123,-354.5 117,-348.5 117,-342.5 117,-342.5 117,-245.5 117,-245.5 117,-239.5 123,-233.5 129,-233.5"/>
<text text-anchor="middle" x="239" y="-339.3" font-family="Times,serif" font-size="14.00">Group</text>
<polyline fill="none" stroke="black" points="117,-331.5 361,-331.5 "/>
<text text-anchor="start" x="125" y="-316.3" font-family="Times,serif" font-size="14.00">id :integer</text>
<text text-anchor="start" x="125" y="-301.3" font-family="Times,serif" font-size="14.00">name :character varying</text>
<text text-anchor="start" x="125" y="-286.3" font-family="Times,serif" font-size="14.00">user_id :integer</text>
<text text-anchor="start" x="125" y="-271.3" font-family="Times,serif" font-size="14.00">description :text</text>
<text text-anchor="start" x="125" y="-256.3" font-family="Times,serif" font-size="14.00">created_at :timestamp without time zone</text>
<text text-anchor="start" x="125" y="-241.3" font-family="Times,serif" font-size="14.00">updated_at :timestamp without time zone</text>
</g>
<!-- GroupUser -->
<g id="node6" class="node"><title>GroupUser</title>
<path fill="none" stroke="black" d="M167,-8C167,-8 387,-8 387,-8 393,-8 399,-14 399,-20 399,-20 399,-117 399,-117 399,-123 393,-129 387,-129 387,-129 167,-129 167,-129 161,-129 155,-123 155,-117 155,-117 155,-20 155,-20 155,-14 161,-8 167,-8"/>
<text text-anchor="middle" x="277" y="-113.8" font-family="Times,serif" font-size="14.00">GroupUser</text>
<polyline fill="none" stroke="black" points="155,-106 399,-106 "/>
<text text-anchor="start" x="163" y="-90.8" font-family="Times,serif" font-size="14.00">id :integer</text>
<text text-anchor="start" x="163" y="-75.8" font-family="Times,serif" font-size="14.00">user_id :integer</text>
<text text-anchor="start" x="163" y="-60.8" font-family="Times,serif" font-size="14.00">group_id :integer</text>
<text text-anchor="start" x="163" y="-45.8" font-family="Times,serif" font-size="14.00">created_at :timestamp without time zone</text>
<text text-anchor="start" x="163" y="-30.8" font-family="Times,serif" font-size="14.00">updated_at :timestamp without time zone</text>
<text text-anchor="start" x="163" y="-15.8" font-family="Times,serif" font-size="14.00">accepted :boolean</text>
</g>
<!-- Group&#45;&gt;GroupUser -->
<g id="edge2" class="edge"><title>Group&#45;&gt;GroupUser</title>
<path fill="none" stroke="#65f752" d="M250.505,-225.334C255.137,-198.092 260.476,-166.687 265.143,-139.24"/>
<ellipse fill="none" stroke="#65f752" cx="249.804" cy="-229.456" rx="4.00001" ry="4.00001"/>
<polygon fill="#65f752" stroke="#65f752" points="265.153,-139.181 271.265,-130.076 265.991,-134.251 266.829,-129.322 266.829,-129.322 266.829,-129.322 265.991,-134.251 262.393,-128.568 265.153,-139.181 265.153,-139.181"/>
</g>
<!-- User -->
<g id="node7" class="node"><title>User</title>
<path fill="none" stroke="black" d="M244.5,-451.5C244.5,-451.5 533.5,-451.5 533.5,-451.5 539.5,-451.5 545.5,-457.5 545.5,-463.5 545.5,-463.5 545.5,-845.5 545.5,-845.5 545.5,-851.5 539.5,-857.5 533.5,-857.5 533.5,-857.5 244.5,-857.5 244.5,-857.5 238.5,-857.5 232.5,-851.5 232.5,-845.5 232.5,-845.5 232.5,-463.5 232.5,-463.5 232.5,-457.5 238.5,-451.5 244.5,-451.5"/>
<text text-anchor="middle" x="389" y="-842.3" font-family="Times,serif" font-size="14.00">User</text>
<polyline fill="none" stroke="black" points="232.5,-834.5 545.5,-834.5 "/>
<text text-anchor="start" x="240.5" y="-819.3" font-family="Times,serif" font-size="14.00">id :integer</text>
<text text-anchor="start" x="240.5" y="-804.3" font-family="Times,serif" font-size="14.00">email :character varying</text>
<text text-anchor="start" x="240.5" y="-789.3" font-family="Times,serif" font-size="14.00">encrypted_password :character varying</text>
<text text-anchor="start" x="240.5" y="-774.3" font-family="Times,serif" font-size="14.00">reset_password_token :character varying</text>
<text text-anchor="start" x="240.5" y="-759.3" font-family="Times,serif" font-size="14.00">reset_password_sent_at :timestamp without time zone</text>
<text text-anchor="start" x="240.5" y="-744.3" font-family="Times,serif" font-size="14.00">remember_created_at :timestamp without time zone</text>
<text text-anchor="start" x="240.5" y="-729.3" font-family="Times,serif" font-size="14.00">sign_in_count :integer</text>
<text text-anchor="start" x="240.5" y="-714.3" font-family="Times,serif" font-size="14.00">current_sign_in_at :timestamp without time zone</text>
<text text-anchor="start" x="240.5" y="-699.3" font-family="Times,serif" font-size="14.00">last_sign_in_at :timestamp without time zone</text>
<text text-anchor="start" x="240.5" y="-684.3" font-family="Times,serif" font-size="14.00">current_sign_in_ip :inet</text>
<text text-anchor="start" x="240.5" y="-669.3" font-family="Times,serif" font-size="14.00">last_sign_in_ip :inet</text>
<text text-anchor="start" x="240.5" y="-654.3" font-family="Times,serif" font-size="14.00">name :character varying</text>
<text text-anchor="start" x="240.5" y="-639.3" font-family="Times,serif" font-size="14.00">nationality :character varying</text>
<text text-anchor="start" x="240.5" y="-624.3" font-family="Times,serif" font-size="14.00">gender :character varying</text>
<text text-anchor="start" x="240.5" y="-609.3" font-family="Times,serif" font-size="14.00">age :integer</text>
<text text-anchor="start" x="240.5" y="-594.3" font-family="Times,serif" font-size="14.00">description :text</text>
<text text-anchor="start" x="240.5" y="-579.3" font-family="Times,serif" font-size="14.00">postcount :integer</text>
<text text-anchor="start" x="240.5" y="-564.3" font-family="Times,serif" font-size="14.00">commentcount :integer</text>
<text text-anchor="start" x="240.5" y="-549.3" font-family="Times,serif" font-size="14.00">likecount :integer</text>
<text text-anchor="start" x="240.5" y="-534.3" font-family="Times,serif" font-size="14.00">dislikecount :integer</text>
<text text-anchor="start" x="240.5" y="-519.3" font-family="Times,serif" font-size="14.00">reportcount :integer</text>
<text text-anchor="start" x="240.5" y="-504.3" font-family="Times,serif" font-size="14.00">created_at :timestamp without time zone</text>
<text text-anchor="start" x="240.5" y="-489.3" font-family="Times,serif" font-size="14.00">updated_at :timestamp without time zone</text>
<text text-anchor="start" x="240.5" y="-474.3" font-family="Times,serif" font-size="14.00">role :character varying</text>
<text text-anchor="start" x="240.5" y="-459.3" font-family="Times,serif" font-size="14.00">username :character varying</text>
</g>
<!-- Group&#45;&gt;User -->
<g id="edge3" class="edge"><title>Group&#45;&gt;User</title>
<path fill="none" stroke="#5544d1" d="M273.332,-364.016C283.576,-387.005 295.248,-413.948 307.149,-441.979"/>
<polygon fill="#5544d1" stroke="#5544d1" points="273.269,-363.874 273.29,-352.908 271.226,-359.311 269.182,-354.747 269.182,-354.747 269.182,-354.747 271.226,-359.311 265.075,-356.586 273.269,-363.874 273.269,-363.874"/>
<polygon fill="#5544d1" stroke="#5544d1" points="307.265,-442.253 307.023,-453.216 309.216,-446.857 311.166,-451.461 311.166,-451.461 311.166,-451.461 309.216,-446.857 315.31,-449.706 307.265,-442.253 307.265,-442.253"/>
</g>
<!-- User&#45;&gt;Comment -->
<g id="edge5" class="edge"><title>User&#45;&gt;Comment</title>
<path fill="none" stroke="#dc61c6" d="M407.185,-443.107C418.546,-325.555 433.366,-197.783 446,-173 451.115,-162.966 457.623,-153.409 464.919,-144.447"/>
<ellipse fill="none" stroke="#dc61c6" cx="406.79" cy="-447.211" rx="4" ry="4"/>
<polygon fill="#dc61c6" stroke="#dc61c6" points="465.02,-144.329 474.939,-139.652 468.27,-140.528 471.519,-136.728 471.519,-136.728 471.519,-136.728 468.27,-140.528 468.099,-133.804 465.02,-144.329 465.02,-144.329"/>
</g>
<!-- User&#45;&gt;Post -->
<g id="edge4" class="edge"><title>User&#45;&gt;Post</title>
<path fill="none" stroke="#c9a477" d="M498.752,-444.212C502.331,-437.387 505.879,-430.622 509.373,-423.958"/>
<ellipse fill="none" stroke="#c9a477" cx="496.808" cy="-447.919" rx="4.00002" ry="4.00002"/>
<polygon fill="#c9a477" stroke="#c9a477" points="509.46,-423.793 518.089,-417.027 511.782,-419.365 514.104,-414.937 514.104,-414.937 514.104,-414.937 511.782,-419.365 510.119,-412.847 509.46,-423.793 509.46,-423.793"/>
</g>
<!-- User&#45;&gt;Group -->
<g id="edge7" class="edge"><title>User&#45;&gt;Group</title>
<path fill="none" stroke="#e26028" d="M294.693,-444.034C282.856,-415.349 271.699,-387.726 262.502,-364.22"/>
<ellipse fill="none" stroke="#e26028" cx="296.235" cy="-447.765" rx="4.00002" ry="4.00002"/>
<polygon fill="#e26028" stroke="#e26028" points="262.442,-364.066 263.009,-353.115 260.629,-359.407 258.815,-354.747 258.815,-354.747 258.815,-354.747 260.629,-359.407 254.621,-356.379 262.442,-364.066 262.442,-364.066"/>
</g>
<!-- User&#45;&gt;GroupUser -->
<g id="edge6" class="edge"><title>User&#45;&gt;GroupUser</title>
<path fill="none" stroke="#451358" d="M411.276,-443.196C412.744,-356.665 404.194,-257.197 370,-173 364.88,-160.393 357.511,-148.323 349.13,-137.164"/>
<ellipse fill="none" stroke="#451358" cx="411.192" cy="-447.262" rx="4" ry="4"/>
<polygon fill="#451358" stroke="#451358" points="349.05,-137.063 346.402,-126.422 345.958,-133.134 342.866,-129.205 342.866,-129.205 342.866,-129.205 345.958,-133.134 339.33,-131.988 349.05,-137.063 349.05,-137.063"/>
</g>
<!-- Ability -->
<g id="node8" class="node"><title>Ability</title>
<polygon fill="none" stroke="black" points="894.5,-631.5 894.5,-677.5 949.5,-677.5 949.5,-631.5 894.5,-631.5"/>
<text text-anchor="middle" x="922" y="-662.3" font-family="Times,serif" font-size="14.00">Ability</text>
<polyline fill="none" stroke="black" points="894.5,-654.5 949.5,-654.5 "/>
<text text-anchor="middle" x="922" y="-639.3" font-family="Times,serif" font-size="14.00"> </text>
</g>
</g>
</svg>
